<svg width="95" height="95" viewBox="0 0 95 95" fill="none" xmlns="http://www.w3.org/2000/svg">
<rect x="2" y="2" width="91" height="91" rx="45.5" fill="white"/>
<rect x="2" y="2" width="91" height="91" rx="45.5" stroke="#DDA06B" stroke-width="4"/>
<path d="M21.0015 48.3945C21.0015 52.5237 21.7787 56.3401 23.3325 59.8466C24.887 63.3532 26.991 66.3836 29.6461 68.9402C32.3004 71.4953 35.4079 73.4776 38.9687 74.887C42.5294 76.2957 46.3178 77 50.3318 77C53.3101 77 56.2071 76.7385 59.0242 76.2133C61.8405 75.6896 64.3813 74.853 66.6474 73.7066C68.9134 72.5594 70.7912 71.0691 72.2807 69.2334C73.7695 67.3985 74.676 65.1382 75 62.4508C75 60.8124 74.4654 59.4031 73.397 58.2234C72.3285 57.0445 70.8554 56.4542 68.9784 56.4542C67.6829 56.4542 66.6952 56.9454 66.0157 57.9294C65.3363 58.9118 64.9958 59.9933 64.9958 61.1737C64.9958 62.2877 65.3034 63.2867 65.9194 64.1717C66.5339 65.0566 67.4895 65.4979 68.7842 65.4979C68.1369 67.5951 66.9064 69.1344 65.0936 70.1184C63.2808 71.1008 61.3066 71.5928 59.1697 71.5928C56.1906 71.5928 53.6655 70.8061 51.5936 69.2334C49.5224 67.6608 47.8223 65.6619 46.4948 63.2376C45.1673 60.8125 44.2123 58.2075 43.6292 55.4227C43.0461 52.6363 42.7556 49.9989 42.7556 47.5095C42.7556 46.0669 42.8527 44.4459 43.0461 42.6435C43.2409 40.8411 43.5807 39.0394 44.066 37.2378C44.552 35.4354 45.1994 33.7154 46.0087 32.077C46.8181 30.4386 47.838 29.0292 49.0677 27.8503C51.2046 25.8839 53.5677 24.9007 56.1571 24.9007C57.1277 24.9007 58.0826 25.0647 59.0227 25.3919C59.9612 25.7191 60.884 26.2768 61.7897 27.0635C61.0125 26.8671 60.3009 26.7688 59.6528 26.7688C58.164 26.7688 56.8044 27.1126 55.5739 27.8011C54.3435 28.4888 53.2758 29.4063 52.3686 30.5527C51.4629 31.6999 50.7506 32.9952 50.2317 34.4356C49.7143 35.8782 49.4545 37.3527 49.4545 38.8596C49.4545 40.2357 49.7135 41.5627 50.2317 42.8407C50.7499 44.1186 51.4629 45.2159 52.3686 46.1334C53.275 47.0508 54.3435 47.7876 55.5739 48.3446C56.8044 48.9023 58.1319 49.1796 59.5558 49.1796C61.2394 49.1796 62.7768 48.8192 64.1693 48.099C65.561 47.378 66.7429 46.4115 67.7143 45.1978C68.6849 43.9864 69.4458 42.6095 69.9968 41.0693C70.5478 39.5299 70.8218 37.9731 70.8218 36.3997C70.8218 33.5159 70.1103 30.9766 68.6849 28.7813C67.2611 26.5859 65.4647 24.7677 63.2949 23.3258C61.1259 21.8846 58.715 20.8032 56.06 20.0815C53.4057 19.3613 50.8805 19 48.4846 19C44.7939 19 41.2974 19.7867 37.9958 21.3593C34.6934 22.9327 31.7807 25.0299 29.2549 27.6507C26.729 30.2723 24.722 33.2861 23.2339 36.6944C21.7444 40.1019 21 43.641 21 47.3115V48.3922L21.0015 48.3945Z" fill="#DDA06B"/>
</svg>
